<?xml version="1.0" encoding="UTF-8"?>
<svg xmlns="http://www.w3.org/2000/svg" xmlns:xlink="http://www.w3.org/1999/xlink" width="128px" height="128px" viewBox="0 0 128 128" version="1.1">
<g id="surface1">
<path style=" stroke:none;fill-rule:nonzero;fill:rgb(87.058824%,29.803922%,21.176471%);fill-opacity:1;" d="M 125.585938 58.296875 L 69.699219 2.414062 C 66.484375 -0.804688 61.261719 -0.804688 58.042969 2.414062 L 46.4375 14.019531 L 61.160156 28.742188 C 64.582031 27.585938 68.503906 28.359375 71.230469 31.085938 C 73.96875 33.832031 74.742188 37.789062 73.554688 41.21875 L 87.742188 55.40625 C 91.175781 54.226562 95.136719 54.992188 97.878906 57.738281 C 101.710938 61.566406 101.710938 67.773438 97.878906 71.605469 C 94.046875 75.441406 87.839844 75.441406 84.003906 71.605469 C 81.121094 68.722656 80.410156 64.488281 81.867188 60.9375 L 68.636719 47.707031 L 68.636719 82.527344 C 69.59375 83 70.472656 83.625 71.230469 84.382812 C 75.0625 88.210938 75.0625 94.417969 71.230469 98.253906 C 67.398438 102.085938 61.1875 102.085938 57.359375 98.253906 C 53.527344 94.417969 53.527344 88.210938 57.359375 84.382812 C 58.277344 83.460938 59.371094 82.734375 60.570312 82.242188 L 60.570312 47.097656 C 59.367188 46.605469 58.277344 45.878906 57.359375 44.957031 C 54.457031 42.058594 53.757812 37.800781 55.246094 34.234375 L 40.734375 19.722656 L 2.414062 58.039062 C -0.804688 61.261719 -0.804688 66.480469 2.414062 69.699219 L 58.300781 125.582031 C 61.519531 128.800781 66.738281 128.800781 69.960938 125.582031 L 125.585938 69.960938 C 128.804688 66.738281 128.804688 61.515625 125.585938 58.296875 "/>
</g>
</svg>
